<?xml version="1.0" encoding="utf-8"?>
<!-- Generator: Adobe Illustrator 26.0.2, SVG Export Plug-In . SVG Version: 6.00 Build 0)  -->
<svg version="1.1" id="Layer_1" xmlns="http://www.w3.org/2000/svg" xmlns:xlink="http://www.w3.org/1999/xlink" x="0px" y="0px"
	 viewBox="0 0 375 200" style="enable-background:new 0 0 375 200;" xml:space="preserve">
<style type="text/css">
	.st0{fill:#253858;}
	.st1{fill-rule:evenodd;clip-rule:evenodd;fill:url(#SVGID_1_);}
	.st2{fill:#4C5F7B;}
</style>
<g>
	<g id="Logo_Lock-up">
		<path class="st0" d="M161.6,92.2v12.1h-14.3V150h-13.8v-45.8h-14.3V92.2H161.6z"/>
		<path class="st0" d="M179.2,150h-12.7v-45h12.7v8.6c2.4-6.1,6.3-9.7,13.2-9.2v13.3c-9-0.7-13.2,1.5-13.2,8.7V150z"/>
		<path class="st0" d="M262,150.4c-8.4,0-13.6-4-13.6-13.5V87.6h12.8v47.5c0,2.7,1.8,3.7,4,3.7c0.6,0,1.3,0,1.9-0.1v11.1
			C265.4,150.2,263.7,150.4,262,150.4z"/>
		<path class="st0" d="M288.8,150.4c-8.4,0-13.6-4-13.6-13.5V87.6H288v47.5c0,2.7,1.8,3.7,4,3.7c0.6,0,1.3,0,1.9-0.1v11.1
			C292.2,150.2,290.5,150.4,288.8,150.4z"/>
		<path class="st0" d="M300,127.5c0-13.9,8-23.4,21.8-23.4s21.6,9.5,21.6,23.4s-7.9,23.6-21.6,23.6S300,141.3,300,127.5z
			 M312.5,127.5c0,6.8,2.8,12.1,9.3,12.1s9.1-5.4,9.1-12.1s-2.8-12-9.1-12S312.5,120.7,312.5,127.5L312.5,127.5z"/>
		<path class="st0" d="M209.6,131.6c3.6,0.4,7.2,0.6,10.7,0.6c9.8,0,18-2.6,18-12.1c0-9.2-8.5-16.1-18.7-16.1
			c-13.7,0-22.5,10-22.5,23.8c0,14.4,7.6,23,24.7,23c5.1,0.1,10.1-0.8,14.9-2.6v-10.8c-4.4,1.4-9.4,2.8-14.4,2.8
			C215.5,140.3,210.8,138,209.6,131.6z M219.4,113.9c3.6,0,6.5,2.4,6.5,5.8c0,4.3-4.6,5.7-9.8,5.7c-2.2,0-4.5-0.2-6.7-0.5
			c0.2-2.1,0.8-4.1,1.8-6C212.8,115.8,216,113.9,219.4,113.9L219.4,113.9z"/>
		
			<linearGradient id="SVGID_1_" gradientUnits="userSpaceOnUse" x1="63.545" y1="29.18" x2="63.545" y2="91.57" gradientTransform="matrix(1 0 0 -1 0 202)">
			<stop  offset="0" style="stop-color:#3E5271"/>
			<stop  offset="1" style="stop-color:#77859B"/>
		</linearGradient>
		<path class="st1" d="M87.3,87.6H39.8c-4.1,0-7.4,3.3-7.4,7.4v47.6c0,4.1,3.3,7.4,7.4,7.4c0,0,0,0,0,0h47.5c4.1,0,7.4-3.3,7.4-7.4
			V95C94.7,90.9,91.4,87.6,87.3,87.6z M59.2,132.5c0,1.4-1.1,2.5-2.5,2.5H46.3c-1.4,0-2.5-1.1-2.5-2.5c0,0,0,0,0,0v-30.9
			c0-1.4,1.1-2.5,2.5-2.5h10.4c1.4,0,2.5,1.1,2.5,2.5V132.5z M83.2,118.3c0,1.4-1.1,2.5-2.4,2.5c0,0,0,0,0,0H70.3
			c-1.4,0-2.5-1.1-2.5-2.5l0,0v-16.7c0-1.4,1.1-2.5,2.5-2.5h10.4c1.4,0,2.5,1.1,2.5,2.5L83.2,118.3z"/>
	</g>
	<g id="Attribution">
		<path class="st2" d="M224.9,63.7c0-4-2.6-5.8-7.4-7c-3-0.8-3.7-1.4-3.7-2.4c0-1.2,1.1-1.8,3.1-1.8c2.4,0.1,4.8,0.7,7,1.8v-5
			c-2.1-1-4.5-1.5-6.8-1.5c-5.3,0-8.2,2.5-8.2,6.6c0,3.9,2.6,5.9,7,6.9c3.1,0.7,4,1.2,4,2.5c0,1-0.7,1.8-3,1.8
			c-2.8-0.1-5.6-0.9-8.1-2.3v5.3c2.5,1.2,5.2,1.9,8,1.9C222.2,70.5,224.9,67.8,224.9,63.7z"/>
		<path class="st2" d="M285.3,48.2v22h4.7V53.4l2,4.4l6.6,12.3h5.9v-22h-4.7v14.2l-1.8-4.1l-5.3-10.1H285.3z"/>
		<path class="st2" d="M255.6,48.2h-5.1v22h5.1V48.2z"/>
		<path class="st2" d="M169.2,48.2v22h10.5l1.6-4.8h-7V48.2H169.2z"/>
		<path class="st2" d="M148.4,48.2V53h5.7v17.2h5.1V53h6.1v-4.8H148.4z"/>
		<path class="st2" d="M141,48.2h-6.7l-7.7,22h5.9l1.1-3.7c1.3,0.4,2.7,0.6,4.1,0.6c1.4,0,2.8-0.2,4.1-0.6l1.1,3.7h5.9L141,48.2z
			 M137.6,62.5c-1,0-1.9-0.1-2.8-0.4l2.8-9.6l2.8,9.6C139.5,62.4,138.6,62.5,137.6,62.5L137.6,62.5z"/>
		<path class="st2" d="M197.7,48.2H191l-7.7,22h5.9l1.1-3.7c1.3,0.4,2.7,0.6,4.1,0.6c1.4,0,2.8-0.2,4.1-0.6l1.1,3.7h5.9L197.7,48.2z
			 M194.4,62.5c-1,0-1.9-0.1-2.8-0.4l2.8-9.6l2.8,9.6C196.3,62.4,195.3,62.5,194.4,62.5z"/>
		<path class="st2" d="M274,48.2h-6.7l-7.7,22h5.9l1.1-3.7c1.3,0.4,2.7,0.6,4.1,0.6c1.4,0,2.8-0.2,4.1-0.6l1.1,3.7h5.9L274,48.2z
			 M270.6,62.5c-1,0-1.9-0.1-2.8-0.4l2.8-9.6l2.8,9.6C272.5,62.4,271.6,62.5,270.6,62.5L270.6,62.5z"/>
		<path class="st2" d="M245.2,63.7c0-4-2.6-5.8-7.4-7c-3-0.8-3.7-1.4-3.7-2.4c0-1.2,1.1-1.8,3-1.8c2.4,0.1,4.8,0.7,7,1.8v-5
			c-2.2-1-4.5-1.5-6.9-1.5c-5.3,0-8.2,2.5-8.2,6.6c0,3.9,2.6,5.9,7,6.9c3.1,0.7,4,1.2,4,2.5c0,1-0.7,1.8-3,1.8
			c-2.8-0.1-5.6-0.9-8.1-2.3v5.3c2.5,1.2,5.2,1.9,8,1.9C242.6,70.5,245.2,67.8,245.2,63.7z"/>
	</g>
</g>
</svg>
