<svg width="32" height="32" viewBox="0 0 32 32" fill="none" xmlns="http://www.w3.org/2000/svg">
<g id="vertical-logo-gradient-white-atlassian">
<g id="Group">
<g id="Group_2">
<g id="Group_3">
<path id="Vector" d="M11.5865 12.1072C11.1978 11.6898 10.5789 11.7185 10.3198 12.2511L3.88564 25.1193C3.62655 25.6375 4.00079 26.2277 4.57655 26.2277H13.5297C13.8176 26.2277 14.0767 26.0837 14.2206 25.7959C16.135 21.8087 14.9691 15.7345 11.5865 12.1072Z" fill="url(#paint0_linear)"/>
<path id="Vector_2" d="M16.2932 0.404849C12.6947 6.10487 12.9394 12.4238 15.3 17.1594C17.6607 21.8951 19.4887 25.5367 19.6182 25.7958C19.7478 26.0549 20.0213 26.2277 20.3092 26.2277H29.2622C29.838 26.2277 30.2123 25.6231 29.9532 25.1193C29.9532 25.1193 17.9054 1.0094 17.6031 0.404849C17.3296 -0.127729 16.6531 -0.142123 16.2932 0.404849Z" fill="white"/>
</g>
</g>
<g id="Group_4">
<g id="Group_5">
<g id="Group_6">
<path id="Vector_3" d="M17.8478 30.9345C17.8478 30.3156 17.5168 30.0277 16.6099 29.8406C16.1062 29.7254 15.9766 29.6103 15.9766 29.4519C15.9766 29.2504 16.1637 29.1641 16.4948 29.1641C16.8978 29.1641 17.3009 29.2936 17.6751 29.4519V28.6459C17.4016 28.5163 16.9986 28.4012 16.5236 28.4012C15.6168 28.4012 15.1418 28.7898 15.1418 29.4376C15.1418 29.9557 15.3865 30.3588 16.3221 30.5459C16.8834 30.661 16.9986 30.7474 16.9986 30.9345C16.9986 31.1216 16.8834 31.2368 16.4804 31.2368C16.0198 31.2368 15.4728 31.0785 15.1274 30.8626V31.7118C15.4153 31.8557 15.7895 31.9997 16.4804 31.9997C17.4448 32.0141 17.8478 31.5823 17.8478 30.9345Z" fill="white"/>
<path id="Vector_4" d="M27.7365 28.4587V31.9709H28.485V29.2936L28.8017 29.9989L29.8524 31.9709H30.788V28.4587H30.0396V30.7186L29.7661 30.0709L28.9168 28.4587H27.7365Z" fill="white"/>
<path id="Vector_5" d="M23.0008 28.4587H22.1804V31.9565H23.0008V28.4587Z" fill="white"/>
<path id="Vector_6" d="M21.2304 30.9345C21.2304 30.3156 20.8993 30.0277 19.9925 29.8406C19.4887 29.7254 19.3592 29.6103 19.3592 29.4519C19.3592 29.2504 19.5463 29.1641 19.8774 29.1641C20.2804 29.1641 20.6834 29.2936 21.0577 29.4519V28.6459C20.7842 28.5163 20.3812 28.4012 19.9062 28.4012C18.9993 28.4012 18.5243 28.7898 18.5243 29.4376C18.5243 29.9557 18.769 30.3588 19.7046 30.5459C20.266 30.661 20.3812 30.7474 20.3812 30.9345C20.3812 31.1216 20.266 31.2368 19.863 31.2368C19.4024 31.2368 18.8554 31.0785 18.5099 30.8626V31.7118C18.7978 31.8557 19.1721 31.9997 19.863 31.9997C20.8418 32.0141 21.2304 31.5823 21.2304 30.9345Z" fill="white"/>
<path id="Vector_7" d="M8.80835 28.4587V31.9709H10.478L10.7371 31.208H9.6288V28.4587H8.80835Z" fill="white"/>
<path id="Vector_8" d="M5.4978 28.4585V29.2214H6.40463V31.9707H7.22509V29.2214H8.18948V28.4585H5.4978Z" fill="white"/>
</g>
</g>
<path id="Vector_9" d="M4.30304 28.4585H3.22349L2 31.9562H2.93561L3.10835 31.3661C3.30987 31.4237 3.54017 31.4668 3.75608 31.4668C3.97199 31.4668 4.2023 31.4381 4.40381 31.3661L4.57653 31.9562H5.51214L4.30304 28.4585ZM3.77047 30.7471C3.61214 30.7471 3.4682 30.7184 3.32426 30.6896L3.77047 29.1638L4.21668 30.6896C4.07274 30.7184 3.91441 30.7471 3.77047 30.7471Z" fill="white"/>
<path id="Vector_10" d="M13.3713 28.4587H12.2917L11.0682 31.9564H12.0038L12.1766 31.3663C12.3781 31.4239 12.6084 31.4671 12.8243 31.4671C13.0402 31.4671 13.2705 31.4383 13.472 31.3663L13.6448 31.9564H14.5804L13.3713 28.4587ZM12.8243 30.7474C12.666 30.7474 12.522 30.7186 12.3781 30.6898L12.8243 29.164L13.2705 30.6898C13.141 30.7186 12.9827 30.7474 12.8243 30.7474Z" fill="white"/>
<path id="Vector_11" d="M25.9372 28.4587H24.8576L23.6342 31.9564H24.5698L24.7425 31.3663C24.944 31.4239 25.1743 31.4671 25.3902 31.4671C25.6205 31.4671 25.8364 31.4383 26.0379 31.3663L26.2107 31.9564H27.1463L25.9372 28.4587ZM25.3902 30.7474C25.2319 30.7474 25.0879 30.7186 24.944 30.6898L25.3902 29.164L25.8364 30.6898C25.6925 30.7186 25.5485 30.7474 25.3902 30.7474Z" fill="white"/>
</g>
</g>
</g>
<defs>
<linearGradient id="paint0_linear" x1="15.1057" y1="14.0968" x2="8.31547" y2="25.8579" gradientUnits="userSpaceOnUse">
<stop stop-color="white" stop-opacity="0.4"/>
<stop offset="0.9228" stop-color="white"/>
</linearGradient>
</defs>
</svg>
