<svg width="33" height="32" viewBox="0 0 33 32" fill="none" xmlns="http://www.w3.org/2000/svg">
<g id="vertical-logo-gradient-neutral-atlassian">
<g id="Group">
<g id="Group_2">
<g id="Group_3">
<path id="Vector" d="M12.3923 12.1072C12.0036 11.6898 11.3847 11.7185 11.1256 12.2511L4.69149 25.1193C4.4324 25.6375 4.80664 26.2277 5.3824 26.2277H14.3355C14.6234 26.2277 14.8824 26.0837 15.0264 25.7959C16.9552 21.8087 15.7893 15.7345 12.3923 12.1072Z" fill="url(#paint0_linear)"/>
<path id="Vector_2" d="M17.1135 0.404849C13.515 6.10487 13.7597 12.4238 16.1204 17.1594C18.4954 21.8951 20.309 25.5367 20.4386 25.7958C20.5681 26.0549 20.8416 26.2277 21.1295 26.2277H30.0825C30.6583 26.2277 31.0325 25.6231 30.7734 25.1193C30.7734 25.1193 18.7257 1.0094 18.4234 0.404849C18.1499 -0.127729 17.459 -0.142123 17.1135 0.404849Z" fill="#7A869A"/>
</g>
</g>
<path id="Vector_3" d="M18.6536 30.9345C18.6536 30.3156 18.3226 30.0277 17.4157 29.8406C16.912 29.7254 16.7824 29.6102 16.7824 29.4519C16.7824 29.2504 16.9695 29.164 17.3006 29.164C17.7036 29.164 18.1066 29.2936 18.4809 29.4519V28.6459C18.2074 28.5163 17.8044 28.4012 17.3294 28.4012C16.4226 28.4012 15.9476 28.7898 15.9476 29.4375C15.9476 29.9557 16.1923 30.3587 17.1279 30.5459C17.6892 30.661 17.8044 30.7474 17.8044 30.9345C17.8044 31.1216 17.6892 31.2368 17.2862 31.2368C16.8256 31.2368 16.2786 31.0784 15.9332 30.8625V31.7118C16.221 31.8557 16.5953 31.9997 17.2862 31.9997C18.265 32.014 18.6536 31.5822 18.6536 30.9345Z" fill="#7A869A"/>
<path id="Vector_4" d="M22.0507 30.9345C22.0507 30.3156 21.7196 30.0277 20.8128 29.8406C20.309 29.7254 20.1795 29.6102 20.1795 29.4519C20.1795 29.2504 20.3666 29.164 20.6976 29.164C21.1007 29.164 21.5037 29.2936 21.8779 29.4519V28.6459C21.6045 28.5163 21.2014 28.4012 20.7264 28.4012C19.8196 28.4012 19.3446 28.7898 19.3446 29.4375C19.3446 29.9557 19.5893 30.3587 20.5249 30.5459C21.0863 30.661 21.2014 30.7474 21.2014 30.9345C21.2014 31.1216 21.0863 31.2368 20.6832 31.2368C20.2226 31.2368 19.6757 31.0784 19.3302 30.8625V31.7118C19.6181 31.8557 19.9923 31.9997 20.6832 31.9997C21.662 32.014 22.0507 31.5822 22.0507 30.9345Z" fill="#7A869A"/>
<g id="Group_4">
<g id="Group_5">
<g id="Group_6">
<path id="Vector_5" d="M28.5567 28.4587V31.9708H29.3052V29.2936L29.6219 29.9989L30.6726 31.9708H31.6082V28.4587H30.8597V30.7186L30.5863 30.0708L29.737 28.4587H28.5567Z" fill="#7A869A"/>
<path id="Vector_6" d="M23.8067 28.4587H22.9862V31.9564H23.8067V28.4587Z" fill="#7A869A"/>
<path id="Vector_7" d="M9.6142 28.4587V31.9708H11.2983L11.5574 31.208H10.4347V28.4587H9.6142Z" fill="#7A869A"/>
<path id="Vector_8" d="M6.30359 28.4587V29.2216H7.21041V31.9708H8.03087V29.2216H9.00966V28.4587H6.30359Z" fill="#7A869A"/>
</g>
</g>
<path id="Vector_9" d="M5.12329 28.4587H4.04374L2.82025 31.9564H3.75586L3.92859 31.3663C4.13011 31.4239 4.36041 31.4671 4.57632 31.4671C4.79223 31.4671 5.02253 31.4383 5.22405 31.3663L5.39678 31.9564H6.33239L5.12329 28.4587ZM4.57632 30.7474C4.41799 30.7474 4.27405 30.7186 4.13011 30.6898L4.57632 29.164L5.02253 30.6898C4.87859 30.7186 4.73465 30.7474 4.57632 30.7474Z" fill="#7A869A"/>
<path id="Vector_10" d="M14.1915 28.4587H13.112L11.8885 31.9564H12.8241L12.9968 31.3663C13.1983 31.4239 13.4287 31.4671 13.6446 31.4671C13.8749 31.4671 14.0908 31.4383 14.2923 31.3663L14.465 31.9564H15.4006L14.1915 28.4587ZM13.6446 30.7474C13.4862 30.7474 13.3423 30.7186 13.1983 30.6898L13.6446 29.164L14.0908 30.6898C13.9468 30.7186 13.8029 30.7474 13.6446 30.7474Z" fill="#7A869A"/>
<path id="Vector_11" d="M26.743 28.4587H25.6635L24.44 31.9564H25.3756L25.5483 31.3663C25.7498 31.4239 25.9801 31.4671 26.196 31.4671C26.4263 31.4671 26.6423 31.4383 26.8438 31.3663L27.0165 31.9564H27.9521L26.743 28.4587ZM26.2104 30.7474C26.0521 30.7474 25.9082 30.7186 25.7642 30.6898L26.2104 29.164L26.6566 30.6898C26.5127 30.7186 26.3688 30.7474 26.2104 30.7474Z" fill="#7A869A"/>
</g>
</g>
</g>
<defs>
<linearGradient id="paint0_linear" x1="15.9213" y1="14.0968" x2="9.13107" y2="25.8579" gradientUnits="userSpaceOnUse">
<stop stop-color="#344563"/>
<stop offset="0.9228" stop-color="#7A869A"/>
</linearGradient>
</defs>
</svg>
